<?xml version="1.0" encoding="UTF-8"?>
<svg width="752pt" height="752pt" version="1.1" viewBox="0 0 752 752" xmlns="http://www.w3.org/2000/svg">
 <defs>
  <clipPath id="a">
   <path d="m172 139.21h408v473.58h-408z"/>
  </clipPath>
 </defs>
 <g clip-path="url(#a)">
  <path d="m376 134.47c-7.8477 0-14.207 6.3594-14.207 14.207v37.887c0 7.8477 6.3594 14.207 14.207 14.207s14.207-6.3594 14.207-14.207v-37.887c0-7.8477-6.3594-14.207-14.207-14.207zm-133.93 55.5c-3.6367 0-7.2891 1.3711-10.062 4.1445-5.5469 5.5469-5.5469 14.578 0 20.129l26.785 26.785c5.5469 5.5469 14.578 5.5469 20.129 0 5.5469-5.5469 5.5469-14.578 0-20.129l-26.785-26.785c-2.7734-2.7734-6.4297-4.1445-10.062-4.1445zm267.87 0c-3.6367 0-7.2891 1.3711-10.062 4.1445l-26.785 26.785c-5.5469 5.5469-5.5469 14.578 0 20.129 5.5469 5.5469 14.578 5.5469 20.129 0l26.785-26.785c5.5469-5.5469 5.5469-14.578 0-20.129-2.7734-2.7734-6.4258-4.1445-10.062-4.1445zm-133.93 29.746c-65.102 0-127.87 50.66-127.87 122.39 0 44.66 17.691 73.605 33.445 95.898 15.758 22.297 28.117 37.402 28.117 61.121v56.828c0 18.672 15.52 33.152 33.152 33.152h0.44531c2.332 15.938 16.188 28.414 32.707 28.414s30.371-12.477 32.707-28.414h0.44531c17.633 0 33.152-14.48 33.152-33.152v-56.828c0-23.723 12.363-38.824 28.117-61.121 15.758-22.297 33.445-51.238 33.445-95.898 0-71.73-62.762-122.39-127.87-122.39zm0 28.414c50.406 0 99.453 38.957 99.453 93.977 0 37.57-13.094 58.207-28.117 79.473-12.812 18.129-28.035 37.16-32.262 63.34h-78.141c-4.2266-26.18-19.449-45.211-32.262-63.34-15.031-21.262-28.121-41.902-28.121-79.473 0-55.02 49.047-93.977 99.449-93.977zm-22.348 14.207c-2.0234-0.074219-4.1836 0.19922-6.3633 0.73828-30.824 11.621-53.898 38.77-59.789 71.926-1.2812 7.3633 4.1836 15.297 11.543 16.574 7.3633 1.2773 15.297-4.3281 16.574-11.691 4.125-23.227 20.207-42.199 41.734-50.316 6.1719-2.2969 10.18-9.3516 9.0273-15.836-1.707-7.9531-6.6641-11.176-12.727-11.395zm-167.09 61.566c-7.8477 0-14.207 6.3594-14.207 14.207 0 7.8477 6.3594 14.207 14.207 14.207h37.887c7.8477 0 14.207-6.3594 14.207-14.207 0-7.8477-6.3594-14.207-14.207-14.207zm340.98 0c-7.8477 0-14.207 6.3594-14.207 14.207 0 7.8477 6.3594 14.207 14.207 14.207h37.887c7.8477 0 14.207-6.3594 14.207-14.207 0-7.8477-6.3594-14.207-14.207-14.207zm-189.43 189.43h75.773v9.4727h-75.773zm0 37.887h75.773v4.7344c0 3.0977-2.3789 4.7344-4.7344 4.7344h-66.301c-2.3555 0-4.7344-1.6406-4.7344-4.7344v-4.7344z"/>
 </g>
</svg>
